<svg width="100" height="100" viewBox="0 0 100 100" fill="none" xmlns="http://www.w3.org/2000/svg">
<path d="M49.989 27.056C54.1433 27.056 57.5111 23.6856 57.5111 19.528C57.5111 15.3704 54.1433 12 49.989 12C45.8346 12 42.4668 15.3704 42.4668 19.528C42.4668 23.6856 45.8346 27.056 49.989 27.056Z" fill="#222222"/>
<path d="M78.8635 34.3528C72.2932 36.1206 65.5804 37.2861 58.826 37.8339V58.5697C58.826 58.5956 58.826 58.6242 58.8234 58.6501L66.3793 84.7931C66.8176 86.3091 65.9435 87.8926 64.4313 88.3313C64.1667 88.4065 63.8996 88.4429 63.635 88.4429C62.3977 88.4429 61.259 87.6304 60.8959 86.3818L53.6124 61.1655H45.9657L38.6796 86.3818C38.319 87.6304 37.1777 88.4429 35.9405 88.4429C35.6785 88.4429 35.4113 88.4065 35.1467 88.3313C33.6319 87.8926 32.7604 86.3091 33.1988 84.7931L41.0037 57.7753C41.0426 57.6403 41.0918 57.5079 41.1515 57.3833V37.8443C34.3971 37.3095 27.692 36.1544 21.1166 34.3918C19.594 33.9842 18.6888 32.4189 19.0986 30.8951C19.5058 29.3714 21.0699 28.468 22.5925 28.8755C31.8837 31.3676 41.4524 32.5772 51.0367 32.476C59.9076 32.38 68.7708 31.1573 77.3798 28.8392C78.9024 28.4265 80.4665 29.3298 80.8763 30.8536C81.2861 32.3774 80.3835 33.9427 78.8635 34.3528Z" fill="#222222"/>
</svg>
