<svg width="36" height="36" viewBox="0 0 36 36" fill="none" xmlns="http://www.w3.org/2000/svg">
<path d="M25.9344 13.965C25.7956 13.826 25.6308 13.7157 25.4493 13.6404C25.2678 13.5651 25.0733 13.5264 24.8769 13.5264C24.6804 13.5264 24.4859 13.5651 24.3044 13.6404C24.123 13.7157 23.9581 13.826 23.8194 13.965L17.9994 19.785L12.1794 13.965C11.8989 13.6846 11.5185 13.527 11.1219 13.527C10.7252 13.527 10.3448 13.6846 10.0644 13.965C9.78389 14.2455 9.62633 14.6259 9.62633 15.0225C9.62633 15.4192 9.78389 15.7996 10.0644 16.08L16.9494 22.965C17.0881 23.1041 17.253 23.2144 17.4344 23.2897C17.6159 23.365 17.8104 23.4037 18.0069 23.4037C18.2033 23.4037 18.3978 23.365 18.5793 23.2897C18.7608 23.2144 18.9256 23.1041 19.0644 22.965L25.9494 16.08C26.5194 15.51 26.5194 14.55 25.9344 13.965Z" fill="#656565"/>
</svg>
