<svg width="56" height="56" viewBox="0 0 56 56" fill="none" xmlns="http://www.w3.org/2000/svg">
<path d="M37.333 16.3333C37.333 15.7145 37.5788 15.121 38.0164 14.6834C38.454 14.2458 39.0475 14 39.6663 14C40.2852 14 40.8787 14.2458 41.3163 14.6834C41.7538 15.121 41.9997 15.7145 41.9997 16.3333C41.9997 16.9522 41.7538 17.5457 41.3163 17.9832C40.8787 18.4208 40.2852 18.6667 39.6663 18.6667C39.0475 18.6667 38.454 18.4208 38.0164 17.9832C37.5788 17.5457 37.333 16.9522 37.333 16.3333Z" fill="#313131"/>
<path fill-rule="evenodd" clip-rule="evenodd" d="M28.0003 16.9167C25.0608 16.9167 22.2418 18.0845 20.1632 20.163C18.0847 22.2415 16.917 25.0606 16.917 28.0001C16.917 30.9396 18.0847 33.7587 20.1632 35.8372C22.2418 37.9157 25.0608 39.0834 28.0003 39.0834C30.9398 39.0834 33.7589 37.9157 35.8374 35.8372C37.916 33.7587 39.0837 30.9396 39.0837 28.0001C39.0837 25.0606 37.916 22.2415 35.8374 20.163C33.7589 18.0845 30.9398 16.9167 28.0003 16.9167ZM20.417 28.0001C20.417 25.9889 21.2159 24.06 22.6381 22.6379C24.0603 21.2157 25.9891 20.4167 28.0003 20.4167C30.0115 20.4167 31.9404 21.2157 33.3626 22.6379C34.7847 24.06 35.5837 25.9889 35.5837 28.0001C35.5837 30.0113 34.7847 31.9402 33.3626 33.3623C31.9404 34.7845 30.0115 35.5834 28.0003 35.5834C25.9891 35.5834 24.0603 34.7845 22.6381 33.3623C21.2159 31.9402 20.417 30.0113 20.417 28.0001Z" fill="#313131"/>
<path fill-rule="evenodd" clip-rule="evenodd" d="M40.2684 6.61039C32.1143 5.70604 23.8852 5.70604 15.731 6.61039C11.0364 7.13539 7.24471 10.8337 6.69404 15.5517C5.72829 23.8225 5.72829 32.1776 6.69404 40.4484C7.24471 45.1664 11.034 48.8647 15.731 49.3897C23.8853 50.2922 32.1142 50.2922 40.2684 49.3897C44.963 48.8647 48.7547 45.1664 49.3054 40.4484C50.2711 32.1776 50.2711 23.8225 49.3054 15.5517C48.7547 10.8337 44.9654 7.13539 40.2684 6.61039ZM16.1184 10.0871C24.0151 9.21137 31.9844 9.21137 39.881 10.0871C42.9844 10.4371 45.4694 12.8847 45.831 15.9601C46.767 23.9594 46.767 32.0407 45.831 40.0401C45.644 41.5451 44.955 42.9432 43.8753 44.0085C42.7957 45.0737 41.3885 45.7439 39.881 45.9107C31.9844 46.7864 24.0151 46.7864 16.1184 45.9107C14.6109 45.7439 13.2037 45.0737 12.1241 44.0085C11.0444 42.9432 10.3554 41.5451 10.1684 40.0401C9.23237 32.0407 9.23237 23.9594 10.1684 15.9601C10.3554 14.455 11.0444 13.0569 12.1241 11.9916C13.2037 10.9264 14.6109 10.2539 16.1184 10.0871Z" fill="#313131"/>
</svg>
