<svg width="62" height="77" viewBox="0 0 62 77" fill="none" xmlns="http://www.w3.org/2000/svg">
<path d="M30.989 15.056C35.1433 15.056 38.5111 11.6856 38.5111 7.52801C38.5111 3.37041 35.1433 0 30.989 0C26.8346 0 23.4668 3.37041 23.4668 7.52801C23.4668 11.6856 26.8346 15.056 30.989 15.056Z" fill="#222222"/>
<path d="M59.8635 22.3531C53.2932 24.1209 46.5804 25.2864 39.826 25.8341V46.5699C39.826 46.5959 39.826 46.6244 39.8234 46.6504L47.3793 72.7934C47.8176 74.3093 46.9435 75.8928 45.4313 76.3315C45.1667 76.4068 44.8996 76.4431 44.635 76.4431C43.3977 76.4431 42.259 75.6306 41.8959 74.382L34.6124 49.1658H26.9657L19.6796 74.382C19.319 75.6306 18.1777 76.4431 16.9405 76.4431C16.6785 76.4431 16.4113 76.4068 16.1467 76.3315C14.6319 75.8928 13.7604 74.3093 14.1988 72.7934L22.0037 45.7756C22.0426 45.6406 22.0918 45.5082 22.1515 45.3836V25.8445C15.3971 25.3098 8.69203 24.1546 2.11662 22.392C0.594032 21.9845 -0.311221 20.4191 0.0986066 18.8954C0.505841 17.3716 2.06993 16.4682 3.59252 16.8758C12.8837 19.3678 22.4524 20.5775 32.0367 20.4763C40.9076 20.3802 49.7708 19.1576 58.3798 16.8394C59.9024 16.4267 61.4665 17.3301 61.8763 18.8538C62.2861 20.3776 61.3835 21.9429 59.8635 22.3531Z" fill="#222222"/>
</svg>
