<svg width="100" height="100" viewBox="0 0 100 100" fill="none" xmlns="http://www.w3.org/2000/svg">
<path d="M75.7105 52.1485C75.7105 53.4257 74.7794 54.5134 73.5187 54.7107L68.2558 55.5362C58.9413 56.9976 51.7019 64.2427 50.2415 73.5644L49.4167 78.8315C49.2196 80.093 48.1327 81.025 46.854 81.025C45.5752 81.025 44.491 80.093 44.2912 78.8315L43.4664 73.5644C42.0086 64.2427 34.7692 56.9976 25.4547 55.5362L20.1918 54.7107C18.9312 54.5134 18 53.4257 18 52.1485C18 50.8714 18.9312 49.7811 20.1918 49.5838L25.4547 48.7583C34.7692 47.2969 42.0086 40.0518 43.4664 30.7301L44.2912 25.463C44.491 24.2014 45.5778 23.2695 46.854 23.2695C48.1301 23.2695 49.2196 24.2014 49.4167 25.463L50.2415 30.7301C51.7019 40.0518 58.9413 47.2969 68.2558 48.7583L73.5187 49.5838C74.7794 49.7811 75.7105 50.8688 75.7105 52.1485Z" fill="#222222"/>
<path d="M82.462 30.2343C82.462 30.7769 82.0677 31.2389 81.5334 31.322L79.3053 31.6724C75.3574 32.2902 72.2889 35.3612 71.6716 39.3095L71.3214 41.5419C71.2384 42.0767 70.7767 42.4712 70.2372 42.4712C69.6976 42.4712 69.2333 42.0767 69.1503 41.5419L68.8002 39.3095C68.1828 35.3612 65.1143 32.2902 61.1691 31.6724L58.9384 31.322C58.404 31.2389 58.0098 30.7769 58.0098 30.2343C58.0098 29.6918 58.404 29.2323 58.9384 29.1492L61.1691 28.7988C65.1143 28.181 68.1828 25.1101 68.8002 21.1592L69.1503 18.9293C69.2333 18.3946 69.6951 18 70.2372 18C70.7793 18 71.2384 18.3946 71.3214 18.9293L71.6716 21.1592C72.2889 25.1101 75.3574 28.181 79.3053 28.7988L81.5334 29.1492C82.0677 29.2323 82.462 29.6944 82.462 30.2343Z" fill="#222222"/>
</svg>
