<svg width="28" height="28" viewBox="0 0 28 28" fill="none" xmlns="http://www.w3.org/2000/svg">
<path d="M10.8617 7.82832C10.7535 7.93625 10.6677 8.06445 10.6092 8.20559C10.5506 8.34673 10.5205 8.49802 10.5205 8.65082C10.5205 8.80361 10.5506 8.95491 10.6092 9.09605C10.6677 9.23718 10.7535 9.36539 10.8617 9.47332L15.3884 14L10.8617 18.5267C10.6436 18.7448 10.521 19.0407 10.521 19.3491C10.521 19.6576 10.6436 19.9535 10.8617 20.1717C11.0798 20.3898 11.3757 20.5123 11.6842 20.5123C11.9927 20.5123 12.2886 20.3898 12.5067 20.1717L17.8617 14.8167C17.9698 14.7087 18.0557 14.5805 18.1142 14.4394C18.1727 14.2982 18.2029 14.1469 18.2029 13.9942C18.2029 13.8414 18.1727 13.6901 18.1142 13.5489C18.0557 13.4078 17.9698 13.2796 17.8617 13.1717L12.5067 7.81665C12.0634 7.37332 11.3167 7.37332 10.8617 7.82832Z" fill="black"/>
</svg>
