<svg width="28" height="28" viewBox="0 0 28 28" fill="none" xmlns="http://www.w3.org/2000/svg">
<path d="M13.9997 22.9192C12.4235 21.8097 10.5988 21.1027 8.68551 20.8647C7.3285 20.589 5.94596 20.4588 4.56134 20.4762C4.38417 20.4778 4.20845 20.4442 4.04432 20.3775C3.8802 20.3107 3.73091 20.2121 3.60509 20.0874C3.47926 19.9627 3.37939 19.8142 3.31124 19.6507C3.24309 19.4872 3.208 19.3117 3.20801 19.1346L3.23251 6.42606C3.23176 6.08507 3.36088 5.75659 3.59362 5.50738C3.82636 5.25817 4.14526 5.10693 4.48551 5.08439C5.89501 5.05637 7.30335 5.18234 8.68551 5.46006C10.5968 5.70664 12.42 6.41192 13.9997 7.51572M13.9997 22.9192V7.51572M13.9997 22.9192C15.5758 21.8097 17.4005 21.1027 19.3138 20.8647C20.6709 20.589 22.0534 20.4588 23.438 20.4762C23.6152 20.4778 23.7909 20.4442 23.955 20.3775C24.1192 20.3107 24.2684 20.2121 24.3943 20.0874C24.5201 19.9627 24.62 19.8142 24.6881 19.6507C24.7563 19.4872 24.7913 19.3117 24.7913 19.1346L24.7657 6.42606C24.7664 6.08526 24.6375 5.75694 24.405 5.50776C24.1725 5.25858 23.8539 5.10721 23.5138 5.08439C22.1043 5.05637 20.696 5.18234 19.3138 5.46006C17.4026 5.70664 15.5793 6.41192 13.9997 7.51572" stroke="black" stroke-width="2" stroke-linecap="round" stroke-linejoin="round"/>
</svg>
