<svg width="100" height="100" viewBox="0 0 100 100" fill="none" xmlns="http://www.w3.org/2000/svg">
<path d="M86.8986 65.9814C86.883 65.0546 86.232 64.2733 85.3475 64.1201L81.2077 63.4063C80.9613 62.6509 80.6526 61.9266 80.2895 61.2361L82.5902 57.6227C83.0805 56.8543 82.9741 55.8315 82.3334 55.1929L80.331 53.1863C79.6877 52.5426 78.6891 52.4621 77.9602 53.002L74.5441 55.5252C73.8645 55.1748 73.1512 54.8866 72.412 54.6608L71.569 50.4217C71.39 49.521 70.6092 48.8798 69.7221 48.8928L66.9338 48.9369C66.0363 48.9499 65.2789 49.6248 65.131 50.5386L64.4411 54.8191C63.7096 55.0735 63.0093 55.3928 62.34 55.7692L58.8435 53.3888C58.0991 52.8826 57.1108 52.9942 56.4909 53.6536L54.5481 55.7251C53.923 56.3896 53.8504 57.4202 54.3717 58.173L56.8126 61.706C56.4728 62.4094 56.1926 63.1441 55.9747 63.9099L51.8739 64.7821C51.0023 64.969 50.3798 65.7685 50.3928 66.69L50.4343 69.574C50.4472 70.5008 51.0983 71.2821 51.9828 71.4353L56.1226 72.1491C56.369 72.9045 56.6777 73.6314 57.0408 74.3219L54.7401 77.9353C54.2498 78.7037 54.3562 79.7265 54.9969 80.3651L56.9993 82.3717C57.3573 82.7299 57.8242 82.9116 58.2936 82.9116C58.6698 82.9116 59.0459 82.7948 59.3701 82.556L62.7862 80.0328C63.4658 80.3832 64.1791 80.674 64.9183 80.8972L65.7613 85.1337C65.9377 86.0266 66.7003 86.6652 67.577 86.6652H67.6056L70.3939 86.6211C71.2914 86.6081 72.0488 85.9332 72.1967 85.0194L72.8866 80.7389C73.6181 80.4845 74.321 80.1652 74.9877 79.7888L78.4842 82.1692C78.7954 82.382 79.1508 82.4859 79.5035 82.4859C79.9912 82.4859 80.4762 82.2886 80.8342 81.9018L82.777 79.8329C83.4021 79.1684 83.4747 78.1378 82.9534 77.3824L80.5125 73.8494C80.8523 73.146 81.1325 72.4113 81.3504 71.6455L85.4512 70.7733C86.3254 70.589 86.9453 69.7869 86.9323 68.868L86.8908 65.984L86.8986 65.9814ZM68.6664 71.7468C66.5447 71.7468 64.8224 69.9686 64.8224 67.7751C64.8224 65.5816 66.5447 63.8034 68.6664 63.8034C70.7882 63.8034 72.5079 65.5816 72.5079 67.7751C72.5079 69.9686 70.7856 71.7468 68.6664 71.7468Z" fill="#222222"/>
<path d="M63.2915 45.8553C63.7402 44.6222 63.2734 43.2542 62.1788 42.6026L57.0533 39.5603C57.1078 38.4363 57.0689 37.3175 56.934 36.2194L61.8104 32.5982C62.848 31.8272 63.2215 30.4202 62.7001 29.2469L61.0634 25.5738C60.5369 24.3926 59.2529 23.7852 58.0156 24.1279L52.2132 25.7399C51.4895 24.9326 50.6906 24.1876 49.8243 23.5152L50.8488 17.4721C51.0667 16.1871 50.356 14.9437 49.1758 14.5102L45.4588 13.1551C44.263 12.719 42.9194 13.2278 42.2632 14.3622L39.1843 19.6837C38.0871 19.65 36.9977 19.7175 35.9212 19.8784L32.4948 14.9541C31.7633 13.9053 30.3989 13.5549 29.2447 14.1156L25.6237 15.8756C24.4616 16.4389 23.8417 17.768 24.1503 19.0296L25.5977 24.9456C24.7936 25.7036 24.0492 26.5394 23.3722 27.4428L17.4997 26.5213C16.2495 26.3266 15.02 27.0716 14.5738 28.2994L13.1706 32.1413C12.7193 33.3743 13.1887 34.7424 14.2808 35.3913L19.4062 38.4337C19.3491 39.5603 19.3906 40.6765 19.5255 41.7772L14.6491 45.3984C13.6115 46.1668 13.238 47.5763 13.7594 48.7497L15.3961 52.4228C15.6892 53.0796 16.2132 53.5572 16.8357 53.7934C17.3337 53.9829 17.8914 54.0193 18.4439 53.8661L24.2463 52.2541C24.97 53.064 25.7663 53.809 26.6352 54.4813L25.6107 60.5219C25.3954 61.7939 26.0802 63.0243 27.2422 63.4708L27.2811 63.4864L30.9981 64.8414C32.1939 65.2775 33.5401 64.7662 34.1963 63.6318L37.2752 58.3128C38.3724 58.3466 39.4644 58.2817 40.5383 58.1181L43.9673 63.0425C44.2734 63.4812 44.691 63.7979 45.1579 63.977C45.8038 64.2236 46.5456 64.2054 47.2174 63.8784L50.8385 62.121C52.0005 61.5551 52.6204 60.2286 52.3118 58.9644L50.8644 53.0484C51.6685 52.2904 52.4129 51.4545 53.0899 50.5512L58.9624 51.4727C60.2126 51.67 61.4421 50.9224 61.8882 49.6971L63.2915 45.8553ZM36.2247 44.2588C33.413 43.1841 32.0305 39.9575 33.1406 37.0501C34.2508 34.1427 37.4283 32.6605 40.24 33.7352C43.0491 34.8099 44.4316 38.0365 43.3215 40.9413C42.2113 43.8487 39.0338 45.3309 36.2221 44.2562L36.2247 44.2588Z" fill="#222222"/>
</svg>
