<svg width="65" height="64" viewBox="0 0 65 64" fill="none" xmlns="http://www.w3.org/2000/svg">
<path d="M57.7105 34.1487C57.7105 35.4258 56.7794 36.5135 55.5187 36.7108L50.2558 37.5363C40.9413 38.9977 33.7019 46.2428 32.2415 55.5646L31.4167 60.8316C31.2196 62.0932 30.1327 63.0251 28.854 63.0251C27.5752 63.0251 26.491 62.0932 26.2912 60.8316L25.4664 55.5646C24.0086 46.2428 16.7692 38.9977 7.45472 37.5363L2.19181 36.7108C0.931195 36.5135 0 35.4258 0 34.1487C0 32.8715 0.931195 31.7812 2.19181 31.5839L7.45472 30.7585C16.7692 29.297 24.0086 22.0519 25.4664 12.7302L26.2912 7.46316C26.491 6.20157 27.5778 5.26965 28.854 5.26965C30.1301 5.26965 31.2196 6.20157 31.4167 7.46316L32.2415 12.7302C33.7019 22.0519 40.9413 29.297 50.2558 30.7585L55.5187 31.5839C56.7794 31.7812 57.7105 32.8689 57.7105 34.1487Z" fill="#222222"/>
<path d="M64.462 12.2343C64.462 12.7769 64.0677 13.2389 63.5334 13.322L61.3053 13.6724C57.3574 14.2902 54.2889 17.3612 53.6716 21.3095L53.3214 23.5419C53.2384 24.0767 52.7767 24.4712 52.2372 24.4712C51.6976 24.4712 51.2333 24.0767 51.1503 23.5419L50.8002 21.3095C50.1828 17.3612 47.1143 14.2902 43.1691 13.6724L40.9384 13.322C40.404 13.2389 40.0098 12.7769 40.0098 12.2343C40.0098 11.6918 40.404 11.2323 40.9384 11.1492L43.1691 10.7988C47.1143 10.181 50.1828 7.11008 50.8002 3.15917L51.1503 0.92932C51.2333 0.394572 51.6951 0 52.2372 0C52.7793 0 53.2384 0.394572 53.3214 0.92932L53.6716 3.15917C54.2889 7.11008 57.3574 10.181 61.3053 10.7988L63.5334 11.1492C64.0677 11.2323 64.462 11.6944 64.462 12.2343Z" fill="#222222"/>
</svg>
