<svg width="114" height="36" viewBox="0 0 114 36" fill="none" xmlns="http://www.w3.org/2000/svg">
<path d="M20.0816 33.9377C18.1763 33.9377 16.5055 33.6092 15.0675 32.9521C13.6277 32.295 12.4995 31.3862 11.6794 30.2256C10.8592 29.065 10.3972 27.7062 10.2969 26.1492H13.8229C14.0056 27.724 14.6592 28.9275 15.7838 29.756C16.9084 30.5845 18.3822 30.9987 20.2052 30.9987C21.9279 30.9987 23.2549 30.6398 24.1861 29.9238C25.1172 29.206 25.5846 28.2008 25.5846 26.908C25.5846 25.8778 25.2551 25.0243 24.5961 24.3476C23.9371 23.6709 22.9092 23.1906 21.5107 22.9084L17.6193 22.03C15.5725 21.5854 14.0127 20.8176 12.9383 19.7266C11.8638 18.6357 11.3266 17.2519 11.3266 15.5752C11.3266 14.2218 11.665 13.0255 12.3455 11.9845C13.0242 10.9436 13.9859 10.1311 15.2322 9.54548C16.4786 8.95983 17.9417 8.667 19.6232 8.667C21.3047 8.667 22.8555 8.9759 24.152 9.59191C25.4485 10.2079 26.4872 11.0668 27.268 12.1684C28.0469 13.2701 28.5197 14.5682 28.6809 16.0627H25.1549C24.8916 14.5878 24.2631 13.4719 23.271 12.7148C22.2771 11.9577 21.0021 11.5792 19.4423 11.5792C17.9828 11.5792 16.8135 11.9131 15.9324 12.5791C15.0514 13.2451 14.6108 14.1557 14.6108 15.3056C14.6108 16.2145 14.9188 16.9876 15.5385 17.6233C16.1563 18.2589 17.1645 18.7285 18.5631 19.032L22.6048 19.9409C24.691 20.4051 26.2562 21.1943 27.3002 22.3049C28.3442 23.4155 28.8653 24.8618 28.8653 26.6384C28.8653 28.8614 28.0899 30.6345 26.5409 31.9575C24.9901 33.2806 22.8376 33.9431 20.0816 33.9431V33.9377Z" fill="#9D1C20"/>
<path d="M34.0317 33.5735V9.02768H44.547C46.0459 9.02768 47.3585 9.29015 48.4831 9.8151C49.6077 10.34 50.4888 11.1025 51.1281 12.1024C51.7656 13.1023 52.0861 14.32 52.0861 15.7538C52.0861 16.8448 51.8533 17.8393 51.3877 18.7392C50.9221 19.6391 50.1718 20.3605 49.1385 20.9051V21.0265C50.0912 21.0265 50.8201 21.2836 51.3269 21.7996C51.8336 22.3139 52.0861 23.0477 52.0861 23.9958V33.5717H48.7428V23.5102H37.4055V33.5717H34.0317V33.5735ZM37.4055 20.6337H44.214C45.5714 20.6337 46.6709 20.2551 47.5107 19.4981C48.3506 18.741 48.7714 17.675 48.7714 16.3002C48.7714 14.9253 48.3506 13.8361 47.5107 13.088C46.6691 12.3416 45.5696 11.9667 44.214 11.9667H37.4055V20.6337Z" fill="#9D1C20"/>
<path d="M68.1027 33.9681C65.8732 33.9681 63.9141 33.4378 62.2219 32.3771C60.5296 31.3165 59.2134 29.8363 58.2714 27.9383C57.3295 26.0403 56.8585 23.828 56.8585 21.3015C56.8585 18.7749 57.3295 16.5948 58.2714 14.695C59.2134 12.7969 60.5314 11.3167 62.2219 10.2561C63.9141 9.19552 65.8732 8.66521 68.1027 8.66521C69.8451 8.66521 71.4049 8.98304 72.7838 9.62047C74.1609 10.2561 75.2909 11.1667 76.1719 12.347C77.053 13.529 77.626 14.9378 77.8893 16.5751H74.3937C74.1501 15.1003 73.4661 13.9183 72.3415 13.0291C71.2169 12.1399 69.804 11.6953 68.101 11.6953C66.5215 11.6953 65.1372 12.0952 63.9517 12.8916C62.7663 13.6897 61.8548 14.8057 61.2173 16.2395C60.5797 17.675 60.2592 19.3713 60.2592 21.33C60.2592 23.2888 60.5779 24.9261 61.2173 26.3599C61.8548 27.7955 62.7681 28.9114 63.9517 29.7078C65.1372 30.5059 66.5197 30.9041 68.101 30.9041C69.804 30.9041 71.2169 30.4595 72.3415 29.5703C73.4661 28.6811 74.1501 27.5098 74.3937 26.0546H77.8893C77.626 27.6705 77.053 29.0703 76.1719 30.2524C75.2909 31.4344 74.1609 32.3486 72.7838 32.9949C71.4049 33.6413 69.8451 33.9645 68.1027 33.9645V33.9681Z" fill="#9D1C20"/>
<path d="M109.879 27.7847C108.207 27.7847 106.765 28.7829 106.121 30.2113H101.626V9.5312C103.075 8.89555 104.088 7.45105 104.088 5.77264C104.088 3.50679 102.24 1.66412 99.9676 1.66412C97.6951 1.66412 95.847 3.50679 95.847 5.77264C95.847 7.26714 96.6511 8.57772 97.8527 9.29551C97.9816 9.37407 98.1141 9.44549 98.252 9.50799V19.3606H85.6701V5.77264H85.6683V2.42654H7.87936C7.23289 0.99633 5.79133 0 4.12055 0C1.84807 0 0 1.84267 0 4.10852C0 6.37437 1.84807 8.21704 4.12055 8.21704C5.79133 8.21704 7.23289 7.22071 7.87936 5.7905H82.2963V33.5735H85.6701V22.3317H98.252V33.5735H106.121C106.765 35.0037 108.209 36 109.879 36C112.152 36 114 34.1573 114 31.8915C114 29.6256 112.152 27.7847 109.879 27.7847ZM4.12055 6.53507C2.77747 6.53507 1.6869 5.44589 1.6869 4.10852C1.6869 2.77115 2.77747 1.68198 4.12055 1.68198C5.46362 1.68198 6.5524 2.77115 6.5524 4.10852C6.5524 5.44589 5.46183 6.53507 4.12055 6.53507ZM97.534 5.77264C97.534 4.43527 98.6263 3.3461 99.9676 3.3461C101.309 3.3461 102.401 4.43527 102.401 5.77264C102.401 7.11001 101.309 8.19919 99.9676 8.19919C98.6263 8.19919 97.534 7.11001 97.534 5.77264ZM109.879 34.318C108.538 34.318 107.446 33.2306 107.446 31.8915C107.446 30.5523 108.538 29.4667 109.879 29.4667C111.221 29.4667 112.313 30.5541 112.313 31.8915C112.313 33.2288 111.221 34.318 109.879 34.318Z" fill="#9D1C20"/>
</svg>
