<svg width="100" height="100" viewBox="0 0 100 100" fill="none" xmlns="http://www.w3.org/2000/svg">
<path d="M68.4265 26.273C63.4774 21.0138 56.5855 18 49.5199 18C49.2423 18 48.9622 18.0052 48.6873 18.013C41.5697 18.244 34.7687 21.5252 30.0323 27.0103C25.8614 31.8438 23.7293 37.9077 24.0275 44.0859V44.104V44.1222V44.2001C24.0172 44.2728 24.0146 44.3377 24.0146 44.3948V80.2281C24.0146 81.2301 24.8291 82.0452 25.8303 82.0452H73.3288C74.3301 82.0452 75.1445 81.2301 75.1445 80.2281V44.7296C75.6348 37.9414 73.2458 31.3869 68.4265 26.2704V26.273ZM53.9891 64.614V71.101C53.9891 73.5334 52.01 75.514 49.5796 75.514C47.1491 75.514 45.17 73.5334 45.17 71.101V64.614C42.7577 63.098 41.2792 60.4424 41.2792 57.5766C41.2792 52.9949 45.004 49.2672 49.5796 49.2672C54.1551 49.2672 57.8799 52.9949 57.8799 57.5766C57.8799 60.445 56.4014 63.098 53.9891 64.614ZM68.6806 42.5803H29.6899L29.7444 41.7496C30.0116 37.7286 31.6042 33.923 34.3485 30.7457C38.0473 26.4625 43.3413 23.9004 48.8714 23.7187C49.0841 23.7109 49.2994 23.7083 49.5121 23.7083C55.0111 23.7083 60.3907 26.0705 64.2711 30.1876C67.3604 33.4714 69.1527 37.469 69.4536 41.747L69.5133 42.5803H68.6781H68.6806Z" fill="#222222"/>
</svg>
