<svg width="52" height="65" viewBox="0 0 52 65" fill="none" xmlns="http://www.w3.org/2000/svg">
<path d="M44.4265 8.27303C39.4774 3.0138 32.5855 0 25.5199 0C25.2423 0 24.9622 0.00519153 24.6873 0.0129791C17.5697 0.244011 10.7687 3.52519 6.03231 9.01025C1.8614 13.8438 -0.270744 19.9077 0.0275488 26.0859V26.104V26.1222V26.2001C0.0171734 26.2728 0.0145827 26.3377 0.0145827 26.3948V62.2281C0.0145827 63.2301 0.829051 64.0452 1.83028 64.0452H49.3288C50.3301 64.0452 51.1445 63.2301 51.1445 62.2281V26.7296C51.6348 19.9414 49.2458 13.3869 44.4265 8.27043V8.27303ZM29.9891 46.614V53.101C29.9891 55.5334 28.01 57.514 25.5796 57.514C23.1491 57.514 21.17 55.5334 21.17 53.101V46.614C18.7577 45.098 17.2792 42.4424 17.2792 39.5766C17.2792 34.9949 21.004 31.2672 25.5796 31.2672C30.1551 31.2672 33.8799 34.9949 33.8799 39.5766C33.8799 42.445 32.4014 45.098 29.9891 46.614ZM44.6806 24.5803H5.68992L5.74439 23.7496C6.01156 19.7286 7.60418 15.923 10.3485 12.7457C14.0473 8.46252 19.3413 5.9004 24.8714 5.71869C25.0841 5.71091 25.2994 5.70831 25.5121 5.70831C31.0111 5.70831 36.3907 8.07055 40.2711 12.1876C43.3604 15.4714 45.1527 19.469 45.4536 23.747L45.5133 24.5803H44.6781H44.6806Z" fill="#222222"/>
</svg>
