<?xml version="1.0" encoding="UTF-8"?><svg id="Layer_2" xmlns="http://www.w3.org/2000/svg" viewBox="0 0 375.82 228.26"><defs><style>.cls-1,.cls-2,.cls-3,.cls-4{fill:none;}.cls-2{stroke-width:6px;}.cls-2,.cls-3,.cls-4{stroke:#9d0213;stroke-miterlimit:10;}.cls-3{stroke-width:8px;}.cls-5{fill:#541d00;}.cls-4{stroke-linecap:round;stroke-width:18px;}.cls-6{fill:#9d0213;}</style></defs><g id="Layer_1-2"><rect class="cls-1" x="5.1" y="109.39" width="361.71" height="109.87"/><path class="cls-4" d="M366.82,219.26H31.88c-12.63,0-22.88-10.24-22.88-22.88v-55.42c0-12.63,10.24-22.88,22.88-22.88h334.94"/><path class="cls-5" d="M51.55,112.81c-8.58,0-16.06-2.05-22.42-6.14-6.36-4.09-10.78-9.64-13.25-16.65l14.65-6.96c2.07,4.54,4.96,8.09,8.66,10.66,3.7,2.57,7.82,3.85,12.36,3.85,3.45,0,6.22-.79,8.29-2.37,2.07-1.58,3.11-3.65,3.11-6.22,0-1.58-.42-2.89-1.26-3.92-.84-1.04-1.95-1.92-3.33-2.66-1.38-.74-2.96-1.35-4.74-1.85l-13.17-3.7c-6.71-1.87-11.82-4.86-15.32-8.95-3.5-4.09-5.25-8.9-5.25-14.43,0-4.93,1.26-9.25,3.77-12.95s6.02-6.59,10.51-8.66c4.49-2.07,9.64-3.11,15.47-3.11,7.6,0,14.3,1.83,20.13,5.48,5.82,3.65,9.96,8.78,12.43,15.39l-14.8,6.96c-1.38-3.65-3.7-6.54-6.96-8.66-3.26-2.12-6.91-3.18-10.95-3.18-3.26,0-5.82.72-7.7,2.15-1.88,1.43-2.81,3.38-2.81,5.85,0,1.38.39,2.62,1.18,3.7.79,1.09,1.9,1.97,3.33,2.66,1.43.69,3.08,1.33,4.96,1.92l12.88,3.85c6.61,1.97,11.71,4.93,15.32,8.88,3.6,3.95,5.4,8.78,5.4,14.5,0,4.83-1.28,9.1-3.85,12.8-2.57,3.7-6.12,6.59-10.66,8.66-4.54,2.07-9.87,3.11-15.98,3.11Z"/><path class="cls-5" d="M97.83,112.81V32.3h18.35v17.91l-1.48-2.66c1.87-6.02,4.81-10.21,8.81-12.58,4-2.37,8.81-3.55,14.43-3.55h4.74v17.32h-6.96c-5.53,0-9.97,1.68-13.32,5.03-3.36,3.35-5.03,8.09-5.03,14.21v44.84h-19.54Z"/><path class="cls-5" d="M192.11,112.81c-8.09,0-15.29-1.85-21.61-5.55-6.32-3.7-11.32-8.73-15.02-15.1-3.7-6.36-5.55-13.54-5.55-21.53s1.82-15.14,5.48-21.46c3.65-6.31,8.66-11.3,15.02-14.95,6.36-3.65,13.59-5.48,21.68-5.48,5.72,0,11.05,1.01,15.98,3.03,4.93,2.02,9.2,4.81,12.8,8.36,3.6,3.55,6.19,7.7,7.77,12.43l-17.02,7.55c-1.48-4.14-3.97-7.42-7.47-9.84-3.5-2.42-7.53-3.63-12.06-3.63-4.24,0-8.02,1.01-11.32,3.03-3.31,2.02-5.9,4.88-7.77,8.58-1.88,3.7-2.81,7.87-2.81,12.51s.94,8.93,2.81,12.58c1.87,3.65,4.46,6.51,7.77,8.58,3.3,2.07,7.08,3.11,11.32,3.11,4.64,0,8.66-1.23,12.06-3.7,3.4-2.47,5.89-5.77,7.47-9.92l17.02,7.7c-1.58,4.54-4.14,8.61-7.7,12.21-3.55,3.6-7.8,6.42-12.73,8.44-4.93,2.02-10.31,3.03-16.13,3.03Z"/><path class="cls-5" d="M242.17,112.04V0h19.54v47.36l-2.66-2.81c1.87-4.83,4.96-8.51,9.25-11.03,4.29-2.52,9.3-3.77,15.02-3.77s11.17,1.28,15.76,3.85c4.59,2.57,8.16,6.14,10.73,10.73,2.56,4.59,3.85,9.89,3.85,15.91v51.8h-19.39v-47.21c0-3.55-.69-6.61-2.07-9.18-1.38-2.56-3.28-4.54-5.7-5.92-2.42-1.38-5.25-2.07-8.51-2.07s-5.97.69-8.44,2.07c-2.47,1.38-4.39,3.36-5.77,5.92-1.38,2.57-2.07,5.62-2.07,9.18v47.21h-19.54Z"/><line class="cls-3" x1="15.47" y1="146.09" x2="265.98" y2="146.09"/><line class="cls-3" x1="16.84" y1="170.9" x2="331.23" y2="170.9"/><line class="cls-3" x1="15.47" y1="193.71" x2="221.99" y2="193.71"/><circle class="cls-2" cx="277.91" cy="146.09" r="11.92"/><circle class="cls-2" cx="343.15" cy="169.9" r="11.92"/><circle class="cls-6" cx="228.66" cy="193.71" r="11.92"/></g></svg>