<svg width="28" height="28" viewBox="0 0 28 28" fill="none" xmlns="http://www.w3.org/2000/svg">
<path d="M14 15.7499C14.4641 15.7499 14.9092 15.5655 15.2374 15.2373C15.5656 14.9091 15.75 14.464 15.75 13.9999C15.75 13.5358 15.5656 13.0906 15.2374 12.7625C14.9092 12.4343 14.4641 12.2499 14 12.2499C13.5359 12.2499 13.0908 12.4343 12.7626 12.7625C12.4344 13.0906 12.25 13.5358 12.25 13.9999C12.25 14.464 12.4344 14.9091 12.7626 15.2373C13.0908 15.5655 13.5359 15.7499 14 15.7499ZM7.875 13.9999C7.875 12.3754 8.52031 10.8175 9.66897 9.66887C10.8176 8.52021 12.3755 7.8749 14 7.8749C15.6245 7.8749 17.1824 8.52021 18.331 9.66887C19.4797 10.8175 20.125 12.3754 20.125 13.9999C20.125 15.6243 19.4797 17.1823 18.331 18.3309C17.1824 19.4796 15.6245 20.1249 14 20.1249C12.3755 20.1249 10.8176 19.4796 9.66897 18.3309C8.52031 17.1823 7.875 15.6243 7.875 13.9999ZM14 9.6249C12.8397 9.6249 11.7269 10.0858 10.9064 10.9063C10.0859 11.7268 9.625 12.8396 9.625 13.9999C9.625 15.1602 10.0859 16.273 10.9064 17.0935C11.7269 17.914 12.8397 18.3749 14 18.3749C15.1603 18.3749 16.2731 17.914 17.0936 17.0935C17.9141 16.273 18.375 15.1602 18.375 13.9999C18.375 12.8396 17.9141 11.7268 17.0936 10.9063C16.2731 10.0858 15.1603 9.6249 14 9.6249ZM3.5 13.9999C3.5 11.2149 4.60634 8.54395 6.57563 6.57466C8.54493 4.60536 11.2159 3.49902 14.0009 3.49902C16.7859 3.49902 19.4568 4.60536 21.4261 6.57466C23.3954 8.54395 24.5018 11.2149 24.5018 13.9999C24.5018 16.7849 23.3954 19.4558 21.4261 21.4251C19.4568 23.3944 16.7859 24.5008 14.0009 24.5008C11.2159 24.5008 8.54493 23.3944 6.57563 21.4251C4.60634 19.4558 3.5 16.7849 3.5 13.9999ZM14 5.2499C11.6791 5.2499 9.4533 6.17186 7.8122 7.81297C6.17109 9.45408 5.24913 11.6799 5.24913 14.0008C5.24913 16.3216 6.17109 18.5475 7.8122 20.1886C9.4533 21.8297 11.6791 22.7516 14 22.7516C16.3209 22.7516 18.5467 21.8297 20.1878 20.1886C21.8289 18.5475 22.7509 16.3216 22.7509 14.0008C22.7509 11.6799 21.8289 9.45408 20.1878 7.81297C18.5467 6.17186 16.3209 5.2499 14 5.2499Z" fill="black"/>
</svg>
